<svg viewBox="0 0 463 560">
<defs>
    <clipPath id="c1">
        <path  fill="#FF00FF" stroke="#000000" stroke-width="1.5794" stroke-miterlimit="10" d="M101.34817,129.946349 C99.3309322,133.304389 97.3136945,135.990821 95.9688693,138.677254 C85.2102679,157.48228 79.8309672,193.077509 83.1930301,209.196103 C87.2275057,223.971481 71.7620162,237.403642 61.0034148,252.17902 C49.5724008,266.954398 41.5034497,275.685303 38.1413868,281.058168 C34.7793239,286.431033 40.1586246,293.147114 46.8827504,295.161938 C53.6068763,297.176762 57.6413518,295.833546 62.3482399,299.191586 C67.0551281,302.549627 67.7275406,313.966964 63.0206525,319.339829 C63.0206525,319.339829 64.3654777,326.05591 70.417191,328.742342 C70.417191,328.742342 60.3310022,332.771991 63.6930651,339.488072 C66.3827155,343.51772 71.0896036,346.87576 67.0551281,354.263449 C62.3482399,361.651138 60.3310022,386.500638 73.7792539,397.917975 C83.1930301,405.977272 91.9343938,405.305664 102.020583,404.634056 C108.072296,403.962448 114.124009,403.29084 121.520548,404.634056 C138.330862,406.64888 155.141177,405.305664 154.468764,445.602149 C153.796352,477.167729 149.089464,494.629539 145.727401,504.032053 C144.382576,508.061701 145.054988,512.762958 148.417051,515.44939 C155.141177,522.165471 172.623904,532.239592 214.313485,532.239592 C270.123729,532.239592 309.123659,504.703661 326.606387,488.585067 C333.330513,482.540594 335.34775,473.809689 331.313275,465.750392 C313.830547,426.797123 306.434009,413.364961 314.50296,393.216718 C317.19261,385.829029 322.571911,379.112949 329.96845,370.382043 C333.330513,367.024003 338.037401,361.651138 343.416701,354.263449 C363.589079,334.786815 399.899359,279.714952 419.399324,223.299873 C440.916526,159.497104 395.192471,103.753633 388.468345,91.6646878 C381.744219,79.5757423 361.571841,85.620215 361.571841,85.620215 C360.227016,74.8744857 366.951142,77.560918 317.865023,43.9805137 C268.778904,10.4001094 184.054918,37.2644328 161.865303,39.9508652 C139.675687,42.6372975 125.555023,47.3385541 101.34817,82.9337827 C91.9343938,97.0375525 93.9516315,125.9167 102.020583,129.946349 L101.34817,129.946349 Z"></path>
    </clipPath>
    </defs>
</svg>